grf
version=1
nRows=7
nColumns=37
inDegrees=no
endheader
time	ground_force_1_vx	ground_force_1_vy	ground_force_1_vz	ground_force_1_px	ground_force_1_py	ground_force_1_pz	ground_moment_1_mx	ground_moment_1_my	ground_moment_1_mz	ground_force_2_vx	ground_force_2_vy	ground_force_2_vz	ground_force_2_px	ground_force_2_py	ground_force_2_pz	ground_moment_2_mx	ground_moment_2_my	ground_moment_2_mz	ground_force_3_vx	ground_force_3_vy	ground_force_3_vz	ground_force_3_px	ground_force_3_py	ground_force_3_pz	ground_moment_3_mx	ground_moment_3_my	ground_moment_3_mz	ground_force_4_vx	ground_force_4_vy	ground_force_4_vz	ground_force_4_px	ground_force_4_py	ground_force_4_pz	ground_moment_4_mx	ground_moment_4_my	ground_moment_4_mz
      2.03000000	      0.00000000	     -0.00000000	      0.00000000	      0.00000000	      0.00000000	      0.00000000	      0.00000000	      0.00000000	      0.00000000	      0.50128531	     35.32958984	   -354.53106689	   -316.17761137	  -1101.25729719	      0.00000000	      0.00000000	      0.00000000	   1490.71240353	     -0.35350730	    -39.74475858	   -408.16351318	   -313.30240713	   -740.08405275	      0.00000000	      0.00000000	     -0.00000000	  -1919.25483802	      0.00000000	     -0.00000000	      0.00000000	      0.00000000	      0.00000000	      0.00000000	      0.00000000	      0.00000000	      0.00000000
      2.04000000	      0.00000000	     -0.00000000	      0.00000000	      0.00000000	      0.00000000	      0.00000000	      0.00000000	      0.00000000	      0.00000000	      1.23041391	     34.98776245	   -354.37252808	   -316.32243804	  -1101.81858813	      0.00000000	      0.00000000	      0.00000000	   1689.25473698	     -0.32053079	    -39.76280973	   -408.15826416	   -311.59291424	   -740.15010609	      0.00000000	      0.00000000	     -0.00000000	  -2009.81465339	      0.00000000	     -0.00000000	      0.00000000	      0.00000000	      0.00000000	      0.00000000	      0.00000000	      0.00000000	      0.00000000
      2.05000000	      0.00000000	     -0.00000000	      0.00000000	      0.00000000	      0.00000000	      0.00000000	      0.00000000	      0.00000000	      0.00000000	      1.57254541	     34.40433502	   -351.43014526	   -315.53565991	  -1100.63080875	      0.00000000	      0.00000000	      0.00000000	   1620.88315079	     -0.92106227	    -39.99409477	   -406.77169800	   -311.13955912	   -739.80679656	      0.00000000	      0.00000000	     -0.00000000	  -1927.37090073	      0.00000000	     -0.00000000	      0.00000000	      0.00000000	      0.00000000	      0.00000000	      0.00000000	      0.00000000	      0.00000000
      2.06000000	      0.00000000	     -0.00000000	      0.00000000	      0.00000000	      0.00000000	      0.00000000	      0.00000000	      0.00000000	      0.00000000	      2.00494790	     33.68198776	   -350.29888916	   -314.92270430	  -1101.68565227	      0.00000000	      0.00000000	      0.00000000	   1568.02200784	     -0.80162264	    -39.63813393	   -404.38995361	   -310.81819059	   -740.38547402	      0.00000000	      0.00000000	     -0.00000000	  -2058.13854252	      0.00000000	     -0.00000000	      0.00000000	      0.00000000	      0.00000000	      0.00000000	      0.00000000	      0.00000000	      0.00000000
      2.07000000	      0.00000000	     -0.00000000	      0.00000000	      0.00000000	      0.00000000	      0.00000000	      0.00000000	      0.00000000	      0.00000000	      2.92504668	     33.30229187	   -350.33355713	   -314.95170496	  -1102.74804007	      0.00000000	      0.00000000	      0.00000000	   1682.82803235	     -1.50808674	    -38.82846819	   -401.87353516	   -309.53738082	   -739.03544229	      0.00000000	     -0.00000000	     -0.00000000	  -1997.10886065	      0.00000000	     -0.00000000	      0.00000000	      0.00000000	      0.00000000	      0.00000000	      0.00000000	      0.00000000	      0.00000000
      2.08000000	      0.00000000	     -0.00000000	      0.00000000	      0.00000000	      0.00000000	      0.00000000	      0.00000000	      0.00000000	      0.00000000	      3.12236786	     32.76197815	   -347.17590332	   -313.72638670	  -1103.11329980	      0.00000000	      0.00000000	      0.00000000	   1681.92116769	     -2.59123402	    -38.80593468	   -397.73971558	   -307.97345543	   -738.74483560	      0.00000000	      0.00000000	     -0.00000000	  -2070.91653822	      0.00000000	     -0.00000000	      0.00000000	      0.00000000	      0.00000000	      0.00000000	      0.00000000	      0.00000000	      0.00000000
      2.09000000	      0.00000000	     -0.00000000	      0.00000000	      0.00000000	      0.00000000	      0.00000000	      0.00000000	      0.00000000	      0.00000000	      2.41519642	     31.95344543	   -342.07980347	   -312.09817409	  -1102.20793065	      0.00000000	      0.00000000	      0.00000000	   1716.75052692	     -4.08568676	    -39.01456416	   -392.79559326	   -307.75737050	   -738.94216895	      0.00000000	     -0.00000000	     -0.00000000	  -2221.26215196	      0.00000000	     -0.00000000	      0.00000000	      0.00000000	      0.00000000	      0.00000000	      0.00000000	      0.00000000	      0.00000000
